/* XPM */
static char *_a4b117cc8e84864c196043c457d339bMHCHnPM5U95hKXhT[] = {
/* columns rows colors chars-per-pixel */
"16 16 87 1 ",
"  c None",
". c #DF4C4F",
"X c #E15659",
"o c #E1595C",
"O c #E25D60",
"+ c #E36163",
"@ c #E26265",
"# c #E36265",
"$ c #E36669",
"% c #E56F72",
"& c #E57678",
"* c #E67679",
"= c #E6777A",
"- c #E6787A",
"; c #F09A1E",
": c #F49F20",
"> c #EC9B31",
", c #F4A226",
"< c #F1A333",
"1 c #F4A731",
"2 c #F4A937",
"3 c #F5AB3A",
"4 c #F1A83F",
"5 c #F5AB3C",
"6 c #F1A940",
"7 c #F5AF44",
"8 c #F5B34F",
"9 c #F5B44F",
"0 c #F6B450",
"q c #F6B552",
"w c #F5B756",
"e c #F6B756",
"r c #F6BA5D",
"t c #D29377",
"y c #F6BC62",
"u c #F6BE66",
"i c #F6BE67",
"p c #F6BF69",
"a c #F7C16E",
"s c #F7C67A",
"d c #F8C67B",
"f c #F8C77C",
"g c #F8C87F",
"h c #A8649D",
"j c #4996D7",
"k c #599FDA",
"l c #5FA3DB",
"z c #61A4DC",
"x c #66A7DD",
"c c #7BB3E1",
"v c #D59A81",
"b c #D69B81",
"n c #E88486",
"m c #E98486",
"M c #E9898B",
"N c #EB9396",
"B c #EB9496",
"V c #E9BE9A",
"C c #CD9BA0",
"Z c #CC9CA1",
"A c #CD9CA1",
"S c #CD9DA1",
"D c #CC9CA3",
"F c #C597BD",
"G c #D4A8A8",
"H c #CCA3B8",
"J c #CDA5B9",
"K c #CFA9BD",
"L c #ECA2A4",
"P c #EFAAAB",
"I c #F0AFB1",
"U c #F8C980",
"Y c #EFC392",
"T c #EBCE9D",
"R c #F0C899",
"E c #F9D499",
"W c #DAC9A5",
"Q c #DBCAA5",
"! c #CBA6C5",
"~ c #CBA7C6",
"^ c #CCA7C6",
"/ c #CCA8C6",
"( c #CDA9C7",
") c #CEACC9",
"_ c #CFADC9",
"` c #D1B2CC",
"' c #9BC5E8",
/* pixels */
"     jzzzzc     ",
"     x          ",
"   Epaiipiii    ",
"   eysgUgUf2G   ",
" .-eVhnooo=8S=@ ",
" + eT's00981S   ",
" O eWk5tbbbbK   ",
" O eWk3J        ",
" O eWk3H        ",
" O eWl7>,,,,    ",
" XLeRFINBBP0SM= ",
" %meY  $$$ 9C @ ",
"   r<466446;C   ",
"    __~~^(^~`   ",
"     x          ",
"     jzzzzc     "
};
