/* XPM */
static char *c00ac76b83314e8cdf6529b49515d8b1c1p5v2YEpo4vfSha[] = {
/* columns rows colors chars-per-pixel */
"32 32 178 2 ",
"   c None",
".  c #DA282C",
"X  c #DC3A3E",
"o  c #DC3B3F",
"O  c #DD3B3F",
"+  c #882779",
"@  c #DF4A4D",
"#  c #E05458",
"$  c #E15559",
"%  c #E15B5E",
"&  c #E25B5F",
"*  c #E05D61",
"=  c #E36A6D",
"-  c #E4696C",
";  c #E36E71",
":  c #E47274",
">  c #E6787A",
",  c #F19100",
"<  c #F19101",
"1  c #F29100",
"2  c #F2970E",
"3  c #EA8D10",
"4  c #EB8E10",
"5  c #EB8F11",
"6  c #EB9011",
"7  c #EC9011",
"8  c #EC9112",
"9  c #ED9212",
"0  c #ED9213",
"q  c #ED9313",
"w  c #F29910",
"e  c #F29912",
"r  c #F39912",
"t  c #F29C17",
"y  c #DC8939",
"u  c #DD8A39",
"i  c #DD8A3A",
"p  c #DE8B3A",
"a  c #E18F37",
"s  c #E08F3D",
"d  c #E0903E",
"f  c #E2913F",
"g  c #F3A226",
"h  c #F3A42B",
"j  c #F4A62F",
"k  c #F4A631",
"l  c #F3A936",
"z  c #F4A936",
"x  c #F4A937",
"c  c #F4AA37",
"v  c #F4AC3C",
"b  c #F4AC3D",
"n  c #DD914E",
"m  c #E29340",
"M  c #E39440",
"N  c #F6AD42",
"B  c #F5B34E",
"V  c #EFAD56",
"C  c #F5B655",
"Z  c #F7C16D",
"A  c #933C85",
"S  c #9C4C8F",
"D  c #A6619B",
"F  c #3389D3",
"G  c #338AD3",
"H  c #3E8FD4",
"J  c #3E90D4",
"K  c #4292D5",
"L  c #539CD9",
"P  c #5BA1DA",
"I  c #76B0DF",
"U  c #BD86A0",
"Y  c #BE88A2",
"T  c #B987B0",
"R  c #B987B1",
"E  c #B987B2",
"W  c #BA89B2",
"Q  c #BA8AB2",
"!  c #BB8BB3",
"~  c #BC8CB4",
"^  c #BD8EB5",
"/  c #BE8FB7",
"(  c #BE90B6",
")  c #BF91B7",
"_  c #BF91B8",
"`  c #BF92B8",
"'  c #C78884",
"]  c #C78984",
"[  c #C88B85",
"{  c #C88C86",
"}  c #C88D87",
"|  c #C98D87",
" . c #C58889",
".. c #C98E88",
"X. c #CA9089",
"o. c #C58C96",
"O. c #E9888A",
"+. c #E8898B",
"@. c #E98A8C",
"#. c #EA8E8F",
"$. c #EB9698",
"%. c #EA9899",
"&. c #EB9B9C",
"*. c #D9A998",
"=. c #C08BA3",
"-. c #C18EA6",
";. c #C391A7",
":. c #C49ABD",
">. c #C69BBE",
",. c #ECA3A4",
"<. c #EDAAAA",
"1. c #ECADAF",
"2. c #EEADAE",
"3. c #EFAEAF",
"4. c #EFAFAF",
"5. c #E1B8A0",
"6. c #EEAFB0",
"7. c #EDB3B5",
"8. c #EFBCBD",
"9. c #F0B3B3",
"0. c #F0B5B6",
"q. c #F0B7B8",
"w. c #F1BCBD",
"e. c #F1BDBE",
"r. c #F0BEBF",
"t. c #F8C981",
"y. c #F8C982",
"u. c #F8CA82",
"i. c #F8CA83",
"p. c #F8CC86",
"a. c #F8CC87",
"s. c #F8CF8E",
"d. c #F9D69D",
"f. c #F9DFB3",
"g. c #F9E0B4",
"h. c #F9E0B5",
"j. c #FAE1B7",
"k. c #FAE1B8",
"l. c #FAE2BA",
"z. c #89BBE4",
"x. c #92BFE5",
"c. c #C8A2C1",
"v. c #CAA3C3",
"b. c #C9A4C3",
"n. c #CAA4C4",
"m. c #CAA5C4",
"M. c #CCA8C6",
"N. c #CCA9C7",
"B. c #CEABC7",
"V. c #CEABC8",
"C. c #CFABC9",
"Z. c #D0AFCA",
"A. c #D0B1CB",
"S. c #D1B1CC",
"D. c #D0B2CC",
"F. c #D2B4CE",
"G. c #D5B8D0",
"H. c #D5B9D1",
"J. c #D6BBD1",
"K. c #D6BAD2",
"L. c #D7BED3",
"P. c #D9BED4",
"I. c #A1C8E8",
"U. c #A7CCE9",
"Y. c #AFD0EB",
"T. c #B3D3EB",
"R. c #BCD8EE",
"E. c #D9C0D5",
"W. c #DAC2D6",
"Q. c #DFCADB",
"!. c #F0C3C4",
"~. c #F1C4C5",
"^. c #E0CBDD",
"/. c #EADDE8",
"(. c #FDFAEE",
"). c #FDFAEF",
"_. c #FDFAF1",
"`. c #FEFEFE",
/* pixels */
"                    J J H H H H H H H H H x.                    ",
"                    F I z.z.z.z.z.z.z.z.z.R.                    ",
"                    F I.                                        ",
"                    L Y.                                        ",
"                                                                ",
"            _.l c c c c c c c c c c c c c c c c f.              ",
"            (., j B B B B B B B B B B B B B v , *.^.            ",
"            _., u.                          j., [ H.            ",
"  8.# # # @._., u.  + >.3.@ @ @ @ @ @ @ @ %.j.1 ..A.O.# $ # e.  ",
"  1.. * ; &.(., u.  D   e.= = = = = = = = 1.g., [ W.&.; : ; ~.  ",
"  1.. q.    _., u.                          k., { S.            ",
"  1.. 9.    _., u.  P T.d.j k k k k k k k k g , { H.            ",
"  1.. 4.    (., u.  F I.a.1 a f a m y s f y f p o.P.            ",
"  1.. 4.    _., u.  F I.u.1 -.c.M.n.C.n.N.N.n.B.n.^.            ",
"  1.. 4.    (., u.  F I.u.1 U /.                                ",
"  1.. 1.    _., u.  F I.u.1 ;.                                  ",
"  1.. 4.    _., u.  F I.u.1 =.                                  ",
"  1.. 4.    _., u.  F I.u.1 =.                                  ",
"  1.. 4.    (., u.  F I.p.1 n V N N N N N N N N                 ",
"  1.. 1.    _., u.  K U.s.w r r r r r r r r 2 1 5.              ",
"  1.. 9.    (., u.                          l.1 [ G.            ",
"  1.. : O.3._., u.  S Z.w.= = - = = - = = <.g.1 X.F.$.= = - ~.  ",
"  7.O O O > _., u.  A c.0.& & * & & & & & ,.g.1 [ P.#.& & & e.  ",
"            (., u.                          g.1 ..Z.            ",
"            (., v Z Z Z Z Z Z Z Z Z Z Z Z Z C , [ P.            ",
"            (.t 6 3 9 3 0 3 3 9 3 9 3 3 0 3 9 9  .H.            ",
"              `.:.! ^ ) ! ) ! ! :.T ) ^ ! _ R ^ ^ S.            ",
"                                                                ",
"                    L Y.                                        ",
"                    F I.                                        ",
"                    F I z.z.z.z.z.z.z.z.z.R.                    ",
"                    J H H H H H H H H H J x.                    "
};
