/* XPM */
static char *b9e4c5cd25fa48c1a3dcba1c3cbe4cf8XXDgy4RjA8T7gCV5[] = {
/* columns rows colors chars-per-pixel */
"32 32 199 2 ",
"   c None",
".  c #A41F22",
"X  c #A72D30",
"o  c #A42B2E",
"O  c #BF7C14",
"+  c #C57806",
"@  c #C37913",
"#  c #A83F43",
"$  c #AA4245",
"%  c #AD4648",
"&  c #AC5355",
"*  c #AC5759",
"=  c #B25255",
"-  c #B85C5E",
";  c #B1494B",
":  c #B46768",
">  c #BA7778",
",  c #E65B5F",
"<  c #F05C5F",
"1  c #E45F62",
"2  c #F25F62",
"3  c #C27B7D",
"4  c #C46B6D",
"5  c #E56A6D",
"6  c #EA6467",
"7  c #F9666A",
"8  c #F56F72",
"9  c #F27A7D",
"0  c #FE787B",
"q  c #EB7174",
"w  c #BA8129",
"e  c #CE800C",
"r  c #CD8016",
"t  c #D98717",
"y  c #D6860E",
"u  c #EE9208",
"i  c #E28B13",
"p  c #E68F1A",
"a  c #E5931A",
"s  c #F49B13",
"d  c #F89D13",
"f  c #F29C1B",
"g  c #EA8F0D",
"h  c #FBA31C",
"j  c #FDA417",
"k  c #C88B2E",
"l  c #CC9034",
"z  c #DB9D3C",
"x  c #D7993A",
"c  c #E19D35",
"v  c #FEAA23",
"b  c #F5A32A",
"n  c #FFB62D",
"m  c #E8A33A",
"M  c #FCAD30",
"N  c #FFC13C",
"B  c #FFCB3D",
"V  c #FFC134",
"C  c #DA9D41",
"Z  c #F9B246",
"A  c #FBB64C",
"S  c #E9AC5A",
"D  c #EFB253",
"F  c #F3B454",
"G  c #FDBC53",
"H  c #F6B95B",
"J  c #F7B756",
"K  c #F2AE48",
"L  c #F3BE6D",
"P  c #F5BB63",
"I  c #EBBB73",
"U  c #FFCE4A",
"Y  c #FFCA42",
"T  c #FFDD4C",
"R  c #FEC95B",
"E  c #FFD857",
"W  c #FFEA59",
"Q  c #FAC56A",
"!  c #FFD765",
"~  c #F6C374",
"^  c #F9C876",
"/  c #FFE568",
"(  c #FFF463",
")  c #FFF867",
"_  c #FFEA76",
"`  c #FFF17E",
"'  c #26679E",
"]  c #2E6B9E",
"[  c #2969A0",
"{  c #4177A6",
"}  c #966F90",
"|  c #9C7896",
" . c #A47A9D",
".. c #B357A4",
"X. c #BD69AF",
"o. c #A97DA2",
"O. c #CC7EC0",
"+. c #5984A7",
"@. c #789BB8",
"#. c #7092AD",
"$. c #7CA1BF",
"%. c #489EE7",
"&. c #50A6EF",
"*. c #5DB3FB",
"=. c #6DB2EB",
"-. c #6BC1FF",
";. c #78CEFF",
":. c #B08183",
">. c #B38D8E",
",. c #BD8F90",
"<. c #B39293",
"1. c #AD83A6",
"2. c #B88DB1",
"3. c #89A2B6",
"4. c #BFBCB5",
"5. c #C18E8E",
"6. c #C99B97",
"7. c #FC8386",
"8. c #FE8F92",
"9. c #FE9699",
"0. c #D3AF9A",
"q. c #CF9BA3",
"w. c #C380B8",
"e. c #FE9DA0",
"r. c #CAA7A8",
"t. c #DBAAA3",
"y. c #D9A8A9",
"u. c #C2BFB7",
"i. c #C0B0BD",
"p. c #DFB6B5",
"a. c #EBABAC",
"s. c #F7A5A7",
"d. c #E2B5AE",
"f. c #E2B3B3",
"g. c #E5BCB7",
"h. c #FCBBBD",
"j. c #ECC588",
"k. c #FBCE87",
"l. c #FED28B",
"z. c #F7DD8C",
"x. c #FCDE89",
"c. c #F7D985",
"v. c #FDD492",
"b. c #FFD996",
"n. c #FFDC99",
"m. c #F6D591",
"M. c #FFF582",
"N. c #F9E590",
"B. c #C8C6BD",
"V. c #EDCAB2",
"C. c #FFE6A6",
"Z. c #FFF2AD",
"A. c #FFFAB9",
"S. c #FFF9B5",
"D. c #85ABC9",
"F. c #85ABC9",
"G. c #8BB1CF",
"H. c #8EB4D2",
"J. c #91B6D4",
"K. c #CCB6C8",
"L. c #D2B4CD",
"P. c #D6BDD2",
"I. c #DAB8D5",
"U. c #D8B1D2",
"Y. c #D0ACCA",
"T. c #E6BDD8",
"R. c #86DCFF",
"E. c #BCD0E1",
"W. c #B9DBF8",
"Q. c #AED5F5",
"!. c #95E3FF",
"~. c #BCE2FF",
"^. c #C7C6C1",
"/. c #D6D4CB",
"(. c #DCC8D9",
"). c #DDDAD1",
"_. c #FBC6C8",
"`. c #E8C5DB",
"'. c #FECFD1",
"]. c #FED1D2",
"[. c #FFEAC2",
"{. c #FEEBC8",
"}. c #FFF2CC",
"|. c #E8E6DC",
" X c #FFF5D0",
".X c #C0D5E5",
"XX c #EBCAE5",
"oX c #E6CAE2",
"OX c #F0CFEA",
"+X c #E7D4E4",
"@X c #F0D2EB",
"#X c #C7ECFF",
"$X c #CEF2FF",
"%X c #D3F5FF",
"&X c #EEEBE1",
"*X c #F0EEE4",
"=X c #F5F3E9",
"-X c #F3F1E7",
";X c #F9EEF7",
/* pixels */
"                    ] ] ] ] ] ] ] ] ] ] ] @.                    ",
"                    ' +.#.@.@.F.D.D.H.H.J..X                    ",
"                    ' @.                                        ",
"                    { 3.                                        ",
"                                                                ",
"            4.w k l z K G G A m m c c z z z x x 0.              ",
"            u.+ l S P ^ Q Q P G F F F H H P D a 6.4.            ",
"            ^.+ j.                          {.M 6.K.            ",
"  >.$ $ # 3 ).a m.  ..U.h.2 , < 7 7 0 0 7.h.}.N t.L.: % % ; r.  ",
"  :.. = 4 a.|.b b.  w.  _.9 9 7.7.8.9.e.s.]. XY t.(.> & & & <.  ",
"  :.. g.    -Xv n.                           XU t.P.            ",
"  :.. f.    -Xh b.  =.W.C.R ! / _ ` M.M.` _ ! n t.P.            ",
"  :.. f.    -Xs l.  %.Q.C.B Q c.z.N.z.z.c.~ ~ S q.P.            ",
"  :.. f.    &Xu k.  &.W.C.T `.OX@X@X@XXXoX`.I.P.Y.(.            ",
"  :.. d.    &Xu k.  *.~.Z.W T.;X                                ",
"  :.. d.    *Xu l.  -.#XS.( `.                                  ",
"  > . y.    -Xd v.  ;.#XA.) `.                                  ",
"  | . y.    =Xj b.  R.%XA.) `.                                  ",
"  :.. 6.    =Xh n.  R.%XA.( m.x.! R R A Z Z Z G                 ",
"  :.. 6.    =Xh n.  !.%XA.W E U Z n v d s s j j V.              ",
"  :.. ,.    &Xh n.                          [.h t.`.            ",
"  :.. * : 5.|.f b.  O.XX].8.7.9 q q 5 5 5 a.[.n d.oX3 = = - r.  ",
"  >.X X X : ).a v.  X.T._.0 8 6 6 1 , , 6 a.[.N d.+X> $ % $ <.  ",
"            /.y j.                          }.U V.oX            ",
"            B.+ C I ~ ^ ~ ~ ~ Q L L L ~ ^ x.x.R p.+X            ",
"            B.@ @ r t t p i i i i i t p b Z R ! p.(.            ",
"              ^.| } |  . .1.o.o.1. .1.2.w.P.U.I.L.L.            ",
"                                                                ",
"                    { 3.                                        ",
"                    ' @.                                        ",
"                    ' @.F.F.F.G.G.G.H.J.J.E.                    ",
"                    ] ] ] ] ] ] ] ] ] ] ] @.                    "
};
