/* XPM */
static char *bfebad2b714c4439c6ead093771b11bc1zQLR5BSGzcJ34Q6[] = {
/* columns rows colors chars-per-pixel */
"16 16 135 2 ",
"   c None",
".  c #AA3C3F",
"X  c #AA4245",
"o  c #AA4A4C",
"O  c #AC4C4E",
"+  c #B34F51",
"@  c #AB5356",
"#  c #B85356",
"$  c #BB5659",
"%  c #B25D5F",
"&  c #BD595B",
"*  c #BF5E60",
"=  c #B86466",
"-  c #B36668",
";  c #BA6E70",
":  c #C57173",
">  c #E36669",
",  c #E76A6D",
"<  c #F26B6E",
"1  c #F27577",
"2  c #FB777B",
"3  c #D59437",
"4  c #F6A429",
"5  c #FCAA2C",
"6  c #EAA43E",
"7  c #FDAE33",
"8  c #BCA073",
"9  c #C79549",
"0  c #C4954C",
"q  c #C69A56",
"w  c #DBA654",
"e  c #D2A45E",
"r  c #DAAA5F",
"t  c #DFAD5E",
"y  c #E7A547",
"u  c #ECA640",
"i  c #ECA642",
"p  c #EDA845",
"a  c #E2AF5E",
"s  c #EFB357",
"d  c #F4B555",
"f  c #F0B459",
"g  c #F7BC5F",
"h  c #FABE5F",
"j  c #E1B067",
"k  c #E8B361",
"l  c #E1B36D",
"z  c #EFBB6B",
"x  c #F2BA63",
"c  c #FFC348",
"v  c #FAC166",
"b  c #F9C16A",
"n  c #FFCB6C",
"m  c #FFD564",
"M  c #FDD269",
"N  c #FCD86D",
"B  c #FFDD6F",
"V  c #F7C678",
"C  c #FFD87D",
"Z  c #FFD97E",
"A  c #FFE07E",
"S  c #3670A0",
"D  c #3D76A6",
"F  c #4C7EA7",
"G  c #4E7FA7",
"H  c #4F7FA8",
"J  c #5486AF",
"K  c #5788B2",
"L  c #588AB3",
"P  c #5A8CB5",
"I  c #5B8DB6",
"U  c #5B8DB7",
"Y  c #749DBF",
"T  c #759EC0",
"R  c #70B5F0",
"E  c #BA8182",
"W  c #A3879E",
"Q  c #AD90A7",
"!  c #B292AD",
"~  c #B695B1",
"^  c #B796B2",
"/  c #BA9AB5",
"(  c #FE878A",
")  c #EC9497",
"_  c #F59295",
"`  c #F0999B",
"'  c #E5B89D",
"]  c #C684BB",
"[  c #C7A4A4",
"{  c #D8AFB2",
"}  c #D9B2B5",
"|  c #FAA4A6",
" . c #FEA4A7",
".. c #F0ABAC",
"X. c #E1BABD",
"o. c #F6C984",
"O. c #F7CB89",
"+. c #F8CB88",
"@. c #FCCF8B",
"#. c #F0C99F",
"$. c #FBD190",
"%. c #FFDC90",
"&. c #FFD996",
"*. c #FFF183",
"=. c #FFF389",
"-. c #FFF08E",
";. c #FFF08F",
":. c #FFF98B",
">. c #FFF695",
",. c #EDCBAF",
"<. c #F1CCAD",
"1. c #F2CEAE",
"2. c #E0D0AD",
"3. c #F2DCAF",
"4. c #FAD9AE",
"5. c #E4D3B0",
"6. c #EADCB8",
"7. c #F3D7BB",
"8. c #F4D8BB",
"9. c #EDE2BC",
"0. c #D2AEC1",
"q. c #D4A0CB",
"w. c #D2B4CD",
"e. c #E2B6DB",
"r. c #84C9FE",
"t. c #99DEFF",
"y. c #A6D0F2",
"u. c #A7E8FF",
"i. c #D9C2D6",
"p. c #E4C0C2",
"a. c #E1C0C4",
"s. c #FFC5C6",
"d. c #E2C7DD",
"f. c #F0D0E2",
"g. c #F1D1E2",
/* pixels */
"          S F J L I T           ",
"          J                     ",
"      8 q l V z a t r e         ",
"      9 j $.&.@.o.+.O.d [       ",
"  . : k 1.] _ < 2 (  .Z } % O   ",
"  *   b 3.y.%.Z ;.>.;.m {       ",
"  &   f 2.R B 1.8.7.,.' 0.      ",
"  $   s 5.r.*.g.                ",
"  #   g 6.t.:.g.                ",
"  +   v 9.u.=.N c 7 4 5         ",
"  X E x 4.e.s.| ` ) ..n X.; =   ",
"  @ - w #.q.  1 , >   Z p.  o   ",
"      0 3 y i i 6 i h M a.      ",
"        W Q ! ! ^ / w.d.i.      ",
"          J                     ",
"          D K K I I Y           "
};
