/* XPM */
static char *_5d509956c5b4080f7d73082c2bee5c7C1ICw8ddolsXAbjT[] = {
/* columns rows colors chars-per-pixel */
"64 64 133 2 ",
"   c None",
".  c #73005F",
"X  c #720060",
"o  c #DA282C",
"O  c #DD4C4F",
"+  c #DE4D51",
"@  c #E04E52",
"#  c #E15A5D",
"$  c #C87F63",
"%  c #C47D6F",
"&  c #C57E71",
"*  c #E36B6C",
"=  c #E27174",
"-  c #F29100",
";  c #E2891F",
":  c #F29A12",
">  c #F29E1C",
",  c #F3A01F",
"<  c #E38B21",
"1  c #E79124",
"2  c #E99526",
"3  c #F3A124",
"4  c #F3A62E",
"5  c #F4A936",
"6  c #CE8251",
"7  c #CC825C",
"8  c #D18654",
"9  c #D58E59",
"0  c #D7925C",
"q  c #D9945D",
"w  c #F4B44C",
"e  c #F4B756",
"r  c #F6BB5E",
"t  c #DD9A61",
"y  c #CA8675",
"u  c #CA8876",
"i  c #CD8C79",
"p  c #D1957E",
"a  c #F6BC63",
"s  c #EAB570",
"d  c #F5C36E",
"f  c #F5C778",
"g  c #F5C87D",
"h  c #9D4F91",
"j  c #B479AA",
"k  c #3389D2",
"l  c #4996D6",
"z  c #519BD7",
"x  c #72ACDE",
"c  c #73AEE0",
"v  c #7FB4E0",
"b  c #BE828D",
"n  c #B782AE",
"m  c #B884AE",
"M  c #B786B1",
"N  c #B986B1",
"B  c #BC8CB4",
"V  c #BF91B7",
"C  c #BF91B8",
"Z  c #D29680",
"A  c #D49982",
"S  c #C58D95",
"D  c #CE9891",
"F  c #C79298",
"G  c #CA969A",
"H  c #E78184",
"J  c #E88385",
"K  c #E78D8F",
"L  c #E98F91",
"P  c #E99798",
"I  c #EA9898",
"U  c #C08DA6",
"Y  c #C092B7",
"T  c #C093B9",
"R  c #C599BE",
"E  c #C6A0BF",
"W  c #EAA1A3",
"Q  c #EDAAAB",
"!  c #ECB4B5",
"~  c #F0BDBE",
"^  c #F7CE8B",
"/  c #F8D59C",
"(  c #F7E0B2",
")  c #83B8E1",
"_  c #C7A1C0",
"`  c #CAA4C4",
"'  c #CCA9C6",
"]  c #CEAEC9",
"[  c #D1AFCB",
"{  c #CFB1CB",
"}  c #D3B6CE",
"|  c #D4B9CF",
" . c #D5B7D0",
".. c #D6BAD2",
"X. c #EEBFC1",
"o. c #97C3E5",
"O. c #9AC4E7",
"+. c #A4CAE6",
"@. c #ABCEE8",
"#. c #B1D1E8",
"$. c #B9D6ED",
"%. c #BFDAED",
"&. c #DAC2D6",
"*. c #DDC6D9",
"=. c #DEC9DB",
"-. c #E1C8CB",
";. c #F0C5C6",
":. c #F4CDCD",
">. c #E1CCDE",
",. c #F4D5D5",
"<. c #F4D7D8",
"1. c #F4DBDC",
"2. c #FBF1DB",
"3. c #C1DBEE",
"4. c #C8DEEE",
"5. c #E3D2E1",
"6. c #E9DBE7",
"7. c #EBDEE9",
"8. c #EEE4EC",
"9. c #F7E3E3",
"0. c #F8E6E5",
"q. c #F6E9E9",
"w. c #F9EDED",
"e. c #FDFAED",
"r. c #FDFBF3",
"t. c #F5FBFC",
"y. c #FEFEFD",
"u. c #FEFFFD",
"i. c #FEFEFE",
"p. c #FEFFFE",
"a. c #FFFFFE",
"s. c #FFFFFF",
"d. c #FDFDFD",
/* pixels */
"                                      @.l l l l l l l l l l l l l l l l l l l l l l v                                           ",
"                                      +.k k k k k k k k k k k k k k k k k k k k k k x                                           ",
"                                      +.k k k k k k k k k k k k k k k k k k k k k k x                                           ",
"                                      +.k k O.t.t.t.t.t.t.t.t.t.t.t.t.t.t.t.t.t.t.t.d.                                          ",
"                                      +.k k O.                                                                                  ",
"                                      +.k k O.                                                                                  ",
"                                      +.k k O.                                                                                  ",
"                                      %.c c $.                                                                                  ",
"                                                                                                                                ",
"                          a.a.a.a.a.a.a.a.a.a.a.a.a.a.a.a.a.a.a.a.a.a.a.a.a.a.a.a.a.a.a.a.a.a.a.a.                              ",
"                          r.d d d d d d d d d d d d d d d d d d d d d d d d d d d d d d d d d d (                               ",
"                          e.- - - - - - - - - - - - - - - - - - - - - - - - - - - - - - - - - - g                               ",
"                          e.- - - - - - - - - - - - - - - - - - - - - - - - - - - - - - - - - - s 6.>.                          ",
"                          e.- - : / / / / / / / / / / / / / / / / / / / / / / / / / / / / e - - 9 N ..                          ",
"                          e.- - > a.                                                    a.^ - - 8 B ..                          ",
"                          e.- - > a.                                                    a.^ - - 8 Y '                           ",
"      ;.H H H J J J H 9.  e.- - > a.  [ h h '   a.K * * * * * * * * * * * * * * * * P   a.^ - - 9 V _   9.H H J J J J J ;.      ",
"      W o o o o o o o :.  e.- - > a.  B X X N   a.# o o o o o o o o o o o o o o o o *   a.^ - - t N ]   :.o o o o o o o W       ",
"      W o o o o o o o ,.  e.- - > a.  B X X j   a.# o o o o o o o o o o o o o o o o *   d.^ - - 0 n ..  :.o o o o o o o W       ",
"      W o o = ! ! ! ! w.  e.- - > a.  8.&.&.6.  a.,.X.X.X.X.X.X.X.X.X.X.X.;.X.X.X.~ <.  a.^ - - 8 B ..  w.! ! ! ! ! ! ! 1.      ",
"      W o o I a.          e.- - > a.                                                    a.^ - - $ U [                           ",
"      W o o I             r.- - > a.                                                    a.^ - - 0 Y _                           ",
"      W o o I             e.- - > a.  4.) ) 3.  a.g r r a a a a a a a a a a a a a a a a a 5 - - t m '                           ",
"      W o o I             e.- - > a.  +.k k O.  a.5 - - - - - - - - - - - - - - - - - - - - - - 0 n |                           ",
"      W o o I             e.- - > d.  +.k k O.  a.5 - - - - - - - - - - - - - - - - - - - - - - 8 B ..                          ",
"      W o o I             e.- - > a.  +.k k O.  a.5 - - 7 Z Z y % i Z Z u & y p A i % y p A i & S T [                           ",
"      W o o I             e.- - > a.  +.k k O.  a.5 - - G B m m T T B n n Y Y Y N n B T Y N n B T Y `                           ",
"      W o o I             e.- - > a.  +.k k O.  a.5 - - F m ] 5.*. . .=.>.>. . .*.5.>...} &.>.>...} 8.                          ",
"      W o o I             e.- - > a.  +.k k O.  a.5 - - b m 7.                                                                  ",
"      W o o I             e.- - > a.  +.k k O.  a.5 - - b C 5.                                                                  ",
"      W o o I             r.- - > d.  +.k k O.  d.5 - - S T =.                                                                  ",
"      W o o I             e.- - > a.  +.k k O.  a.5 - - G B >.                                                                  ",
"      W o o I             e.- - > a.  +.k k O.  a.5 - - F m 6.                                                                  ",
"      W o o I             r.- - > a.  +.k k O.  a.5 - - S N 7.                                                                  ",
"      W o o I             e.- - > a.  +.k k O.  a.5 - - j U 5.                                                                  ",
"      W o o I             e.- - > a.  +.k k O.  a.5 - - S U >.                                                                  ",
"      W o o I             e.- - > d.  +.k k O.  a.5 - - D U -.                                                                  ",
"      W o o I             e.- - > a.  +.k k O.  a.5 - - - - - - - - - - - - - - - - - - - - - - g                               ",
"      W o o I             e.- - > a.  +.k k O.  a.5 - - - - - - - - - - - - - - - - - - - - - - g a.a.                          ",
"      W o o I             r.- - > a.  #.z z @.  a.w 3 > 3 3 3 3 3 3 3 3 3 3 3 3 3 3 3 3 3 : - - q T =.                          ",
"      W o o I             e.- - > a.  a.a.a.a.    a.a.a.a.a.a.a.a.a.a.a.a.a.a.a.a.a.a.a.a.^ - - 6 Y }                           ",
"      W o o I             e.- - > a.                                                    d.^ - - 8 V `                           ",
"      W o o K q.q.q.q.d.  e.- - > d.  >.R R >.  a.~ Q Q Q Q Q Q Q Q Q Q Q Q Q Q Q Q ;.  a.^ - - q B `   w.Q Q Q Q Q Q Q <.      ",
"      W o o o o o o o :.  e.- - > a.  B X X n   a.# o o o o o o o o o o o o o o o o *   a.^ - - t N {   :.o o o o o o o W       ",
"      W o o o o o o o :.  e.- - > a.  B X X n   a.# o o o o o o o o o o o o o o o o *   a.^ - - 9 m ..  :.o o o o o o o W       ",
"      ! O + + + @ + + <.  r.- - > a.  &.j j ..  a.Q L L L L L L L L L L L L L L L K Q   a.^ - - $ U |   0.L L L L L L L :.      ",
"      a.a.a.a.a.a.a.a.    e.- - > a.    a.a.                                            a.^ - - 8 Y '                           ",
"                          e.- - > a.                                                    a.^ - - 0 Y `                           ",
"                          e.- - > 2.2.2.2.2.2.2.2.2.2.2.2.2.2.2.2.2.2.2.2.2.2.2.2.2.2.2.2.f - - t n [                           ",
"                          e.- - - - - - - - - - - - - - - - - - - - - - - - - - - - - - - - - - 9 N ..                          ",
"                          e.- - - - - - - - - - - - - - - - - - - - - - - - - - - - - - - - - - 6 C ..                          ",
"                          e.4 4 1 < < 2 2 < < < 2 2 < ; < 1 2 1 < < 1 2 1 < ; < 2 2 < ; < 2 2 ; $ C '                           ",
"                          a.a.a.R C C M m B T C M M B V V B n N C C N M N T Y B M N V T B m N C V B E                           ",
"                                ' T N m Y T T N N B T C B m B T T B m B T T B N N V T V n N T T V m ]                           ",
"                                d.d.d.a.a.d.a.d.a.d.d.d.d.a.d.d.d.a.a.d.d.d.d.a.d.a.a.d.a.d.d.d.a.a.d.                          ",
"                                                                                                                                ",
"                                      3.x c $.                                                                                  ",
"                                      +.k k O.                                                                                  ",
"                                      +.k k O.                                                                                  ",
"                                      +.k k O.                                                                                  ",
"                                      +.k k o.t.t.t.t.t.t.t.t.t.t.t.t.t.t.t.t.t.t.t.d.                                          ",
"                                      +.k k k k k k k k k k k k k k k k k k k k k k x                                           ",
"                                      +.k k k k k k k k k k k k k k k k k k k k k k x                                           ",
"                                      @.l l l l l l l l l l l l l l l l l l l l l l v                                           "
};
