/* XPM */
static char *_a05c87bccf349eddeafe844d1ef5ad8CiRgj3wUH8DtCMAv[] = {
/* columns rows colors chars-per-pixel */
"64 64 229 2 ",
"   c None",
".  c #A41E22",
"X  c #A91F23",
"o  c #A72024",
"O  c #AD2124",
"+  c #A7393D",
"@  c #B62E31",
"#  c #DB292E",
"$  c #DD2C31",
"%  c #E7353A",
"&  c #E12F34",
"*  c #BD7203",
"=  c #BB7215",
"-  c #BB7820",
";  c #C77A07",
":  c #CE7F22",
">  c #AD3E40",
",  c #ED3C41",
"<  c #F13F43",
"1  c #AD6164",
"2  c #AE6B6C",
"3  c #B3696A",
"4  c #AE787A",
"5  c #B7797A",
"6  c #BB6F71",
"7  c #F54348",
"8  c #FE4D52",
"9  c #FF5559",
"0  c #FF5D61",
"q  c #FF656A",
"w  c #F87679",
"e  c #F17173",
"r  c #C65C5F",
"t  c #BD8225",
"y  c #D6850C",
"u  c #D98816",
"i  c #CE820F",
"p  c #EB8E02",
"a  c #E48C09",
"s  c #ED920A",
"d  c #EE9006",
"f  c #F49304",
"g  c #F2960B",
"h  c #FA9A0B",
"j  c #EC9513",
"k  c #E8951B",
"l  c #F69C15",
"z  c #E18D11",
"x  c #FEA314",
"c  c #FCA31C",
"v  c #FFAA1C",
"b  c #F7A01D",
"n  c #FFA00F",
"m  c #D98923",
"M  c #D08825",
"N  c #EA9B27",
"B  c #F6A325",
"V  c #FFAB23",
"C  c #FDAB2B",
"Z  c #FAA626",
"A  c #FFB529",
"S  c #FAAD35",
"D  c #FFBB3C",
"F  c #FFB735",
"G  c #ECA135",
"H  c #FFC43C",
"J  c #FFCB3B",
"K  c #FFC433",
"L  c #BB9353",
"P  c #C39B5A",
"I  c #FFBC44",
"U  c #FDB846",
"Y  c #F2AE4F",
"T  c #D6976C",
"R  c #D6AC65",
"E  c #DDB066",
"W  c #CFA769",
"Q  c #E4AA7A",
"!  c #E8B776",
"~  c #E3B568",
"^  c #CBA25F",
"/  c #FFC847",
"(  c #FFD243",
")  c #FFDB4B",
"_  c #FFD847",
"`  c #FFD256",
"'  c #FFCA54",
"]  c #FFE554",
"[  c #FFEC5B",
"{  c #FFF05F",
"}  c #FFE14F",
"|  c #FFDA67",
" . c #F6C978",
".. c #F8C972",
"X. c #FFF463",
"o. c #FFF867",
"O. c #FFE670",
"+. c #26669D",
"@. c #29699F",
"#. c #36709F",
"$. c #2A6BA2",
"%. c #3670A0",
"&. c #3575AA",
"*. c #3979AE",
"=. c #3D7DB2",
"-. c #2F70A4",
";. c #A73895",
":. c #9F2F8D",
">. c #9A7494",
",. c #936B8C",
"<. c #A3799C",
"1. c #B544A3",
"2. c #AA7DA2",
"3. c #A67DA0",
"4. c #F47E81",
"5. c #C178B6",
"6. c #4282B7",
"7. c #5986AC",
"8. c #7A96AC",
"9. c #7695AD",
"0. c #6E93B2",
"q. c #479DE6",
"w. c #53A9F3",
"e. c #64BAFF",
"r. c #73C9FF",
"t. c #B58788",
"y. c #B69494",
"u. c #819BAD",
"i. c #AC84A5",
"p. c #B389AD",
"a. c #BC92B5",
"s. c #91A7B6",
"d. c #BDBEBE",
"f. c #BDB7B3",
"g. c #BBA8B3",
"h. c #9C8298",
"j. c #C58889",
"k. c #D79A9A",
"l. c #CE938E",
"z. c #FB8688",
"x. c #EC9294",
"c. c #FA979A",
"v. c #E88F91",
"b. c #C5AC9A",
"n. c #EBB988",
"m. c #E6B597",
"M. c #C599BD",
"N. c #CF9DA5",
"B. c #C5A8A7",
"V. c #DCA2A2",
"C. c #C2B9B6",
"Z. c #D3AEB9",
"A. c #EEABAC",
"S. c #F9A5A6",
"D. c #F9B7B9",
"F. c #E8B6A9",
"G. c #FDD998",
"H. c #F3CB90",
"J. c #FFF686",
"K. c #FFEC96",
"L. c #FFF39A",
"P. c #FFE28B",
"I. c #C7C3BB",
"U. c #FCDAA4",
"Y. c #FADAA7",
"T. c #F1CCB7",
"R. c #F2D4BB",
"E. c #EEC5B4",
"W. c #FFE4A9",
"Q. c #FFF6A2",
"!. c #FFE8B2",
"~. c #DCC091",
"^. c #89B1D1",
"/. c #BBBFC0",
"(. c #CB9BC3",
"). c #D09BC7",
"_. c #CAA8C5",
"`. c #D3ABCD",
"'. c #D5A5CC",
"]. c #C9B8C6",
"[. c #D3B2CD",
"{. c #D9ACD2",
"}. c #DAB4D4",
"|. c #D9B9D4",
" X c #E4BADA",
".X c #EBBFC8",
"XX c #E9BBE1",
"oX c #85DBFF",
"OX c #93C6EF",
"+X c #AED2EF",
"@X c #B4D9F7",
"#X c #AAD2F5",
"$X c #91E3FF",
"%X c #B6E4FE",
"&X c #C2C2C3",
"*X c #CCCAC8",
"=X c #D5D3CC",
"-X c #DDC3D9",
";X c #DDDCDC",
":X c #D5D5D4",
">X c #D0CECE",
",X c #EAC6CA",
"<X c #F6C8C8",
"1X c #E1C8DD",
"2X c #FBD5D7",
"3X c #EDD5D1",
"4X c #E9E7DD",
"5X c #F9EED9",
"6X c #F1E7D4",
"7X c #FDF2DE",
"8X c #ECC3E5",
"9X c #E5CEE1",
"0X c #EBD7E7",
"qX c #F2DCEE",
"wX c #C6E9FD",
"eX c #CCF3FF",
"rX c #D7EBF6",
"tX c #E4E4E4",
"yX c #EAECED",
"uX c #E9EAE6",
"iX c #F4E9E8",
"pX c #F7F3E6",
"aX c #F6E7F4",
"sX c #EEF2F3",
"dX c #F3F4F4",
"fX c #FFFFFF",
"gX c #F6F9FA",
"hX c #EFEEF0",
"jX c #DBDFE0",
/* pixels */
"                                      u.%.%.#.#.#.#.#.%.%.%.%.%.%.%.%.%.%.%.%.%.%.%.7.                                          ",
"                                      8.+.+.+.+.+.+.+.+.+.$.+.+.+.+.+.$.+.+.+.+.+.$.0.                                          ",
"                                      8.+.+.+.+.+.+.+.$.-.-.&.-.-.&.&.&.*.&.=.=.6.6.^.                                          ",
"                                      8.+.+.9.d.d./.>X:XjXjXtXyXyXsXsXsXgXgXgXgXgXgXgX                                          ",
"                                      8.$.$.9.                                                                                  ",
"                                      8.+.$.9.                                                                                  ",
"                                      9.$.+.9.                                                                                  ",
"                                      s.7.7.s.                                                                                  ",
"                                                                                                                                ",
"                          d.d.&X&X&X*X*X>X;XjXtXiXhXdXhXdXhXyXuXtXtX;XtX;X;X;X;X;X:X:X:X=X>X>X*X*X                              ",
"                          f.L L L P P ^ R E ~  . .H.H... .! ! ~ ~ E E E E E E E E R R R R W ^ ^ b.                              ",
"                          f.* * * * i i u k N B Z V V V c l g p p a p a a a a z a a z u u u u i R                               ",
"                          f.* * ; i i u k B C C A F C V V l l g p p p d d s s g j j k k k k m k W &Xg.                          ",
"                          I.* ; u ~.H.Y.Y.Y.!.!.!.Y.!.!.W.Y.U.U.G.U.U.U.U.Y.U.Y.Y.Y.Y.Y.Y...b N T p._.                          ",
"                          I.; i m yX                                                    fXU.C Z T a.].                          ",
"                          *Xi y G gX    fXfXfX    fXfX                    fXfXfXfXfXfX  fXW.F S T _._.            :XjXsX        ",
"      y.1 1 1 1 1 1 2 I.  =Xu k G fX  1X5.2.XX  fXS.4.4.w w w w 4.4.z.z.z.z.c.z.c.c.D.  fXW.H D n._.M.  B.1 1 1 1 6 2 5 Z.      ",
"      4 o . . . o o @ ,X  :Xu b U fX  '.;.;.).  fXe < , , , , 7 7 7 8 9 0 9 q q q q S.  fX!./ D n.(.[.  b.X X . . . . . t.      ",
"      4 . . . . . o % 3X  6Xk Z U fX  '.;.:.).  fXe , , , 7 7 7 8 9 9 0 q q w w w w S.  fX!./ H n._.-X  B.X O o . . . . 4       ",
"      4 . . 3 B.Z.E.,XhX  uXB C I fX  hX1X9XqX  fX2X<X<X,X<X<X3X2X<X2X2X2X2X2X2X2X2XiX  fX!.( / Q _.-X  *Xy.t.t.t.t.t.t.g.      ",
"      4 . o k.fX          pXZ C / fX                                                    fX!._ H Q _.|.                          ",
"      4 . o A.            pXZ V U fX                                                    fX!.( K n._._.                          ",
"      4 . o k.            pXB V U fX  rXOXOXwX  fXG.O...P.P.P.K.K.L.L.Q.Q.Q.Q.Q.Q.Q.Q.L.K.| J K Q M.`.                          ",
"      4 . o V.            pXl v F fX  +Xq.q.#X  fX' A K J J _ ) ] [ [ [ X.X.X.X.[ [ ] ] _ J K A Q M.|.                          ",
"      4 . o A.            pXj l C fX  +Xq.q.#X  fX' K J _ ) } ] [ [ X.X.X.X.X.X.[ ] } ) ( K A A T M.-X                          ",
"      4 . o k.            5Xs l C fX  +Xq.q.#X  fX| J ( m.E.T.E.E.T.R.<XR.E.T.T.T.D.F.m.F.F.m.l.N.M.].                          ",
"      4 . o k.            uXs f Z fX  +Xq.w.@X  fX| _ ) ,XXXXXXX8X8XXXXXXX8X8X X X{.}.}.[._.(.(.(.M.M.                          ",
"      4 . X V.            4Xa s Z fX  +Xw.w.@X  fXO.) ] ,XXXqXaXaXqXqXaXaXqXqX0X0XaXqX9X-X9X0X9X-X|.0X                          ",
"      4 . o k.            4Xa f Z fX  @Xw.e.@X  fXO.) [ .XXXaX                                                                  ",
"      4 . o k.            uXs f B fX  @Xe.e.%X  fXJ.[ X..X8XaX                                                                  ",
"      4 . o k.            4Xf h C fX  @Xe.r.%X  fXO.X.X.,X8XaX                                                                  ",
"      4 . . k.            pXs h S fX  @Xe.r.wX  fXJ.X.X.2X8XaX                                                                  ",
"      4 . X k.            uXg l F fX  %Xr.r.eX  fXJ.o.o.2XXXdX                                                                  ",
"      4 . X l.            pXh x F fX  wXr.r.wX  fXJ.o.o.,X8XaX                                                                  ",
"      5 . X l.            pXl x F fX  wXoX$XeX  fXJ.o.o..XXXaX                                                                  ",
"      >.. X l.            pXl v U fX  eXr.$XeX  fXJ.o.o.,X8XaX                                                                  ",
"      4 . . j.            pXb v D fX  wXoX$XeX  fXJ.X.X.<X1X0X                                                                  ",
"      4 . . j.            pXc v / fX  wXoX$XeX  fXJ.X.[ [ ) _ J J K A V v x x h h f f f f h h x G.                              ",
"      4 . . j.            pXb v / fX  eXoX$XeX  fXJ.[ ] ] _ J J K A V v x l h h g f f f f h x v P.fXfX                          ",
"      4 . . j.            pXb V I fX  rX$X%XeX  fXJ.O.O.[ | ` ' / / D F F C C Z B B B B Z v x v Q '.0X                          ",
"      4 O . 5             iXb V I fX  fXfXfXfX    fXfXfXfXfXfXfXfXfXfXfXfXfXfXfXfXfXfXfXfXG.v V Q `.1X                          ",
"      4 . . 5             uXk V I fX                                                    fXG.v A Q {.1X                          ",
"      4 . . 2 f.f.C.I.>X  4Xj V I fX  qX XXXqX  fX2X<XD.D.D.D.D.D.A.A.A.A.A.A.A.A.A.<X  fXG.A A n.{. X  *Xj.t.t.t.j.l.B.,X      ",
"      4 . . . . . o O B.  4Xj b U fX  {.1.1.{.  fXz.0 9 9 7 7 < % % & & # # # # # # e   fXK.A D H.'.1X  B.O X O . . . o t.      ",
"      4 . . . . o o o B.  6Xz k S fX  '.;.;.'.  fXz.9 8 7 7 % % % & # # # # # # # # e   fXW.F H n.`.9X  B.O X O . . . . 4       ",
"      t.+ + + + + + > B.  =Xu k S fX  9X).).8X  fXD.S.S.S.c.c.c.x.x.x.x.x.v.v.x.x.x.D.  gXW.H ( n.}.9X  C.6 2 2 2 2 2 2 y.      ",
"      d.d.d.d.d.I.&X&X    =Xy z G fX    dXgX                                            fXW.( / n. X1X                          ",
"                          *X; y N dX                                                    fXW./ ` H.|.|.                          ",
"                          I.; y m 6X6X5X7X7XpX7XpX7X7X7XpX5X7X5X5X5X5X5X5X5X5XpX7XpXpXpXpXW.` ` Y.{.-X                          ",
"                          I.; ; y y y z s j j g h g g f f d f p p p p p p p f g h v A D / ` ` ` m.[.0X                          ",
"                          I.* ; ; ; i y y a z a d d p p d p p p p p p p p p s g l V A H / ` ` ` m.}.9X                          ",
"                          f.t t - = - M M M : u M m m m u m m m : : m m m : : N G Y Y Y .... ...m.|.|.                          ",
"                          I.&X&X>.>.>.>.>.3.i.i.3.3.3.i.i.2.2.2.N.2.2.2.2.p.p.p.a.M.`.`.}.}.}.|.|.[.].                          ",
"                                h.>.,.,.>.<.>.>.>.<.i.i.3.3.2.i.2.2.<.2.i.i.i.i.p.M._.`.`.[.|.|.[._.[.                          ",
"                                ]./.&X*X*X*X>X>X-X:X:X;X;X;X;X;XjX;X9X;X;X;X;XtXuXhXgXfXfXfXfXfXfXdXuX                          ",
"                                                                                                                                ",
"                                      s.7.7.s.                                                                                  ",
"                                      8.@.+.9.                                                                                  ",
"                                      8.+.@.9.                                                                                  ",
"                                      8.+.+.9.                                                                                  ",
"                                      8.+.-.^.tXtXtXyXyXyXyXyXyXsXsXsXdXdXdXsXsXsXsXyX                                          ",
"                                      8.+.+.-.&.*.*.&.&.*.*.*.=.=.=.=.=.6.6.6.6.6.6.^.                                          ",
"                                      8.+.+.+.+.+.+.$.+.+.+.+.+.+.+.+.+.+.@.@.+.$.+.0.                                          ",
"                                      u.#.%.%.%.%.%.%.-.%.%.%.%.%.%.%.#.#.%.%.%.%.%.0.                                          "
};
